<svg width="146" height="60" viewBox="0 0 146 60" fill="none" xmlns="http://www.w3.org/2000/svg">
<path d="M131.6 33.0256C131.6 37.3405 130.79 41.3847 129.17 45.1601H138.61C142.66 45.1601 145.9 48.3958 145.9 52.44C145.9 56.4842 142.66 59.7219 138.61 59.7219H7.78003C3.74003 59.7219 0.5 56.4842 0.5 52.44C0.5 48.3958 3.74003 45.1601 7.78003 45.1601H25.8601C26.6701 28.1729 40.6901 14.9591 57.6901 14.9591C62.5401 14.9591 67.1301 16.0384 71.1801 17.926C76.5701 7.67924 87.36 0.938843 99.5 0.938843C117.3 0.938843 131.6 15.4988 131.6 33.0256Z" fill="white"/>
</svg>
