<svg width="146" height="60" viewBox="0 0 146 60" fill="none" xmlns="http://www.w3.org/2000/svg">
<path d="M14.7999 33.0256C14.7999 37.3405 15.61 41.3847 17.23 45.1601H7.78992C3.73991 45.1601 0.5 48.3958 0.5 52.44C0.5 56.4842 3.73991 59.7219 7.78992 59.7219H138.62C142.66 59.7219 145.9 56.4842 145.9 52.44C145.9 48.3958 142.66 45.1601 138.62 45.1601H120.54C119.73 28.1729 105.71 14.9591 88.71 14.9591C83.86 14.9591 79.27 16.0384 75.22 17.926C69.83 7.67924 59.04 0.938843 46.9 0.938843C29.1 0.938843 14.7999 15.4988 14.7999 33.0256Z" fill="white"/>
</svg>
