<svg width="1308" height="310" viewBox="0 0 1308 310" fill="none" xmlns="http://www.w3.org/2000/svg">
<g clip-path="url(#clip0_605_320)">
<g opacity="0.8">
<g opacity="0.8">
<g opacity="0.8">
<path opacity="0.8" fill-rule="evenodd" clip-rule="evenodd" d="M1144 302.423C1144 306.462 1147.23 309.691 1151.27 309.691H1281.9C1285.94 309.691 1289.17 306.462 1289.17 302.423C1289.17 298.383 1285.94 295.154 1281.9 295.154H1263.85C1263.05 278.193 1249.04 265 1232.07 265C1227.23 265 1222.65 266.077 1218.61 267.961C1213.22 257.73 1202.45 251 1190.33 251C1172.55 251 1158.27 265.539 1158.27 283.038C1158.27 287.346 1159.08 291.385 1160.7 295.154H1151.27C1147.23 295.154 1144 298.383 1144 302.423ZM439.926 35.2341C439.926 38.0013 442.141 40.2154 444.909 40.2154H534.413C537.181 40.2154 539.396 38.0013 539.396 35.2341C539.396 32.4669 537.181 30.2528 534.413 30.2528H522.049C521.495 18.631 511.897 9.59202 500.273 9.59202C496.949 9.59202 493.812 10.3294 491.044 11.6218C487.354 4.61262 479.973 0 471.668 0C459.488 0 449.706 9.96072 449.706 21.9512C449.706 24.9028 450.261 27.6699 451.368 30.2528H444.909C442.141 30.2528 439.926 32.4669 439.926 35.2341ZM0 35.2341C0 38.0013 2.21502 40.2154 4.98331 40.2154H94.487C97.2553 40.2154 99.4703 38.0013 99.4703 35.2341C99.4703 32.4669 97.2553 30.2528 94.487 30.2528H82.1228C81.5696 18.631 71.9718 9.59202 60.3473 9.59202C57.0238 9.59202 53.8866 10.3294 51.1183 11.6218C47.4279 4.61262 40.0471 0 31.7422 0C19.5625 0 9.78028 9.96072 9.78028 21.9512C9.78028 24.9028 10.3355 27.6699 11.442 30.2528H4.98331C2.21502 30.2528 0 32.4669 0 35.2341ZM548.915 40.351H562.201C564.969 40.351 567.184 38.1368 567.184 35.3697C567.184 32.6025 564.969 30.3883 562.201 30.3883H548.915C546.147 30.3883 543.932 32.6025 543.932 35.3697C543.932 38.1368 546.147 40.351 548.915 40.351ZM115.25 40.351H128.536C131.304 40.351 133.519 38.1368 133.519 35.3697C133.519 32.6025 131.304 30.3883 128.536 30.3883H115.25C112.481 30.3883 110.266 32.6025 110.266 35.3697C110.266 38.1368 112.481 40.351 115.25 40.351ZM1291.24 84.1602C1292.86 80.3848 1293.67 76.3406 1293.67 72.0257C1293.67 54.4989 1279.37 39.9389 1261.57 39.9389C1249.43 39.9389 1238.64 46.6793 1233.25 56.9261C1229.2 55.0385 1224.61 53.9592 1219.76 53.9592C1202.76 53.9592 1188.74 67.173 1187.93 84.1602H1169.85C1165.81 84.1602 1162.57 87.3959 1162.57 91.4401C1162.57 95.4843 1165.81 98.722 1169.85 98.722H1300.68C1304.73 98.722 1307.97 95.4843 1307.97 91.4401C1307.97 87.3959 1304.73 84.1602 1300.68 84.1602H1291.24ZM325.688 299.742C326.762 297.159 327.298 294.392 327.298 291.44C327.298 279.449 317.818 269.488 306.012 269.488C297.963 269.488 290.807 274.1 287.23 281.11C284.547 279.818 281.506 279.08 278.286 279.08C267.016 279.08 257.714 288.12 257.178 299.742H245.193C242.51 299.742 240.363 301.955 240.363 304.722C240.363 307.489 242.51 309.704 245.193 309.704H331.949C334.632 309.704 336.779 307.489 336.779 304.722C336.779 301.955 334.632 299.742 331.949 299.742H325.688ZM1130.45 98.1109H1148.97C1152.84 98.1109 1155.92 95.0235 1155.92 91.165C1155.92 87.3065 1152.84 84.2191 1148.97 84.2191H1130.45C1126.59 84.2191 1123.5 87.3065 1123.5 91.165C1123.5 95.0235 1126.59 98.1109 1130.45 98.1109ZM219.063 309.286H231.348C233.908 309.286 235.956 307.174 235.956 304.534C235.956 301.894 233.908 299.782 231.348 299.782H219.063C216.503 299.782 214.455 301.894 214.455 304.534C214.455 307.174 216.503 309.286 219.063 309.286Z" fill="#88D7FC"/>
<path opacity="0.8" fill-rule="evenodd" clip-rule="evenodd" d="M754 415.423C754 419.462 757.232 422.691 761.271 422.691H891.901C895.941 422.691 899.173 419.462 899.173 415.423C899.173 411.383 895.941 408.154 891.901 408.154H873.855C873.048 391.193 859.042 378 842.074 378C837.226 378 832.647 379.077 828.606 380.961C823.22 370.73 812.446 364 800.326 364C782.551 364 768.274 378.539 768.274 396.038C768.274 400.346 769.083 404.385 770.698 408.154H761.271C757.232 408.154 754 411.383 754 415.423ZM49.9257 148.234C49.9257 151.001 52.1407 153.215 54.909 153.215H144.413C147.181 153.215 149.396 151.001 149.396 148.234C149.396 145.467 147.181 143.253 144.413 143.253H132.049C131.495 131.631 121.897 122.592 110.273 122.592C106.949 122.592 103.812 123.329 101.044 124.622C97.3536 117.613 89.9727 113 81.6678 113C69.4881 113 59.7059 122.961 59.7059 134.951C59.7059 137.903 60.2611 140.67 61.3677 143.253H54.909C52.1407 143.253 49.9257 145.467 49.9257 148.234ZM-390 148.234C-390 151.001 -387.785 153.215 -385.017 153.215H-295.513C-292.745 153.215 -290.53 151.001 -290.53 148.234C-290.53 145.467 -292.745 143.253 -295.513 143.253H-307.877C-308.43 131.631 -318.028 122.592 -329.653 122.592C-332.976 122.592 -336.113 123.329 -338.882 124.622C-342.572 117.613 -349.953 113 -358.258 113C-370.438 113 -380.22 122.961 -380.22 134.951C-380.22 137.903 -379.665 140.67 -378.558 143.253H-385.017C-387.785 143.253 -390 145.467 -390 148.234ZM158.915 153.351H172.201C174.969 153.351 177.184 151.137 177.184 148.37C177.184 145.602 174.969 143.388 172.201 143.388H158.915C156.147 143.388 153.932 145.602 153.932 148.37C153.932 151.137 156.147 153.351 158.915 153.351ZM-274.75 153.351H-261.464C-258.696 153.351 -256.481 151.137 -256.481 148.37C-256.481 145.602 -258.696 143.388 -261.464 143.388H-274.75C-277.519 143.388 -279.734 145.602 -279.734 148.37C-279.734 151.137 -277.519 153.351 -274.75 153.351ZM901.242 197.16C902.861 193.385 903.67 189.341 903.67 185.026C903.67 167.499 889.373 152.939 871.57 152.939C859.431 152.939 848.64 159.679 843.246 169.926C839.2 168.038 834.614 166.959 829.758 166.959C812.764 166.959 798.736 180.173 797.927 197.16H779.854C775.808 197.16 772.571 200.396 772.571 204.44C772.571 208.484 775.808 211.722 779.854 211.722H910.684C914.73 211.722 917.967 208.484 917.967 204.44C917.967 200.396 914.73 197.16 910.684 197.16H901.242ZM-64.3119 412.742C-63.2379 410.159 -62.7016 407.392 -62.7016 404.44C-62.7016 392.449 -72.1822 382.488 -83.9876 382.488C-92.0375 382.488 -99.1931 387.1 -102.77 394.11C-105.453 392.818 -108.494 392.08 -111.714 392.08C-122.984 392.08 -132.286 401.12 -132.822 412.742H-144.807C-147.49 412.742 -149.637 414.955 -149.637 417.722C-149.637 420.489 -147.49 422.704 -144.807 422.704H-58.0505C-55.3677 422.704 -53.2211 420.489 -53.2211 417.722C-53.2211 414.955 -55.3677 412.742 -58.0505 412.742H-64.3119ZM740.449 211.111H758.975C762.835 211.111 765.924 208.024 765.924 204.165C765.924 200.306 762.835 197.219 758.975 197.219H740.449C736.589 197.219 733.5 200.306 733.5 204.165C733.5 208.024 736.589 211.111 740.449 211.111ZM-170.937 422.286H-158.652C-156.092 422.286 -154.044 420.174 -154.044 417.534C-154.044 414.894 -156.092 412.782 -158.652 412.782H-170.937C-173.497 412.782 -175.545 414.894 -175.545 417.534C-175.545 420.174 -173.497 422.286 -170.937 422.286Z" fill="#88D7FC"/>
</g>
</g>
</g>
</g>
<defs>
<clipPath id="clip0_605_320">
<rect width="1308" height="310" fill="white"/>
</clipPath>
</defs>
</svg>
