<?xml version="1.0" encoding="iso-8859-1"?>
<!-- Generator: Adobe Illustrator 17.1.0, SVG Export Plug-In . SVG Version: 6.00 Build 0)  -->
<!DOCTYPE svg PUBLIC "-//W3C//DTD SVG 1.1//EN" "http://www.w3.org/Graphics/SVG/1.1/DTD/svg11.dtd">
<svg version="1.1" id="Capa_1" xmlns="http://www.w3.org/2000/svg" xmlns:xlink="http://www.w3.org/1999/xlink" x="0px" y="0px"
	 viewBox="0 0 441.832 441.832" style="enable-background:new 0 0 441.832 441.832;" xml:space="preserve">
<g>
	<path fill="#fff" d="M336.254,78.633H105.578C47.362,78.633,0,125.995,0,184.21c0,19.647,5.401,38.053,14.786,53.825l40.856,83.958
		c12.368,25.416,37.621,41.205,65.903,41.206c0.001,0,0.001,0,0.003,0c11.14,0,21.905-2.49,31.993-7.399
		c26.036-12.67,41.196-38.834,41.18-66.012h52.389c-0.015,27.179,15.145,53.342,41.18,66.012
		c10.089,4.909,20.854,7.399,31.996,7.399c28.282,0,53.534-15.79,65.903-41.206l40.856-83.958
		c9.385-15.771,14.786-34.178,14.786-53.825C441.832,125.995,394.47,78.633,336.254,78.633z M144.388,204.906
		c3.753,3.751,5.819,8.74,5.819,14.046s-2.066,10.295-5.819,14.047c-3.752,3.752-8.74,5.818-14.046,5.818
		c-5.307,0-10.295-2.066-14.047-5.819l-14.149-14.149l-14.149,14.149c-3.752,3.752-8.74,5.819-14.046,5.819
		c-5.307,0-10.295-2.066-14.047-5.819c-3.752-3.752-5.818-8.74-5.818-14.046s2.066-10.294,5.818-14.046l14.149-14.149
		l-14.149-14.149c-7.745-7.745-7.745-20.348,0-28.093c3.752-3.752,8.74-5.818,14.047-5.818c5.306,0,10.294,2.066,14.046,5.818
		l14.149,14.15l14.149-14.15c3.752-3.752,8.74-5.818,14.047-5.818c5.306,0,10.294,2.066,14.046,5.818
		c3.753,3.752,5.819,8.741,5.819,14.047c0,5.306-2.066,10.294-5.819,14.047l-14.149,14.149L144.388,204.906z M346.572,242.895
		c-31.254,0-56.682-25.427-56.682-56.682s25.428-56.682,56.682-56.682c31.255,0,56.683,25.428,56.683,56.682
		S377.827,242.895,346.572,242.895z"/>
	<path fill="#fff" d="M346.572,173.315c8.498,0,15.412-6.914,15.412-15.412s-6.914-15.412-15.412-15.412s-15.411,6.914-15.411,15.412
		S338.074,173.315,346.572,173.315z"/>
	<path fill="#fff" d="M346.572,199.112c-8.498,0-15.411,6.914-15.411,15.412s6.913,15.412,15.411,15.412s15.412-6.914,15.412-15.412
		S355.07,199.112,346.572,199.112z"/>
	<path fill="#fff" d="M374.883,170.802c-8.498,0-15.412,6.914-15.412,15.412s6.914,15.412,15.412,15.412s15.412-6.914,15.412-15.412
		S383.381,170.802,374.883,170.802z"/>
	<path fill="#fff" d="M318.263,170.802c-8.498,0-15.412,6.914-15.412,15.412s6.914,15.412,15.412,15.412s15.411-6.914,15.411-15.412
		S326.761,170.802,318.263,170.802z"/>
</g>
<g>
</g>
<g>
</g>
<g>
</g>
<g>
</g>
<g>
</g>
<g>
</g>
<g>
</g>
<g>
</g>
<g>
</g>
<g>
</g>
<g>
</g>
<g>
</g>
<g>
</g>
<g>
</g>
<g>
</g>
</svg>
